# xmcd
#
# Track frame offsets:
#  150
#  27925
#  61200
#  87425
#  116768
#  142463
#  170315
#  201500
#  225400
#  251363
#  277550
#
# Disc length: 4087 seconds
#
# Revision: 0
# Processed by: cddbd v1.5.2PL0 Copyright (c) Steve Scherf et al.
# Submitted via: Collectorz.com_Music_Collector 6.11
#
DISCID=950ff50b
DTITLE=White, Barry - Staying Power
DYEAR=1999
DGENRE=R&B
TTITLE0=Staying Power
TTITLE1=Don't Play Games
TTITLE2=The Longer We Make Love (Duet with Chaka Khan)
TTITLE3=I Get Off On You
TTITLE4=Which Way Is Up
TTITLE5=Get Up
TTITLE6=Sometimes
TTITLE7=Low Rider
TTITLE8=Thank You
TTITLE9=Slow Your Roll
TTITLE10=The Longer We Make Love (Duet with Lisa Stansfield)
EXTD=
EXTT0=
EXTT1=
EXTT2=
EXTT3=
EXTT4=
EXTT5=
EXTT6=
EXTT7=
EXTT8=
EXTT9=
EXTT10=
PLAYORDER=
